<svg xmlns="http://www.w3.org/2000/svg" width="160" height="160" viewBox="0 0 160 160">
  <path id="_298880_tools_icon" data-name="298880_tools_icon" d="M45.07,72.656C47.7,75.282,57.846,85.98,57.846,85.98l5.624-5.8-8.814-9.1L71.574,53.126s-7.636-7.441-4.295-4.477a36.054,36.054,0,0,0-8.731-34.412,33.33,33.33,0,0,0-33.042-9.1L44.84,25.1,39.754,44.674,20.827,49.9,1.5,29.939a36.03,36.03,0,0,0,8.8,34.148A33.372,33.372,0,0,0,45.07,72.656Zm64.457,19.408L86.212,115.08l38.451,39.812a15.745,15.745,0,0,0,22.777,0,17.028,17.028,0,0,0,0-23.534Zm50.792-66.778L135.831,0,63.65,74.574l8.814,9.1L29.259,128.3l-9.874,5.273L5.437,156.318,8.989,160l22.02-14.413,5.106-10.2,43.2-44.616,8.819,9.1Z" transform="translate(-0.319 0.001)" fill="#f2480c"/>
</svg>
