<svg xmlns="http://www.w3.org/2000/svg" width="731.67004" height="619.0958" viewBox="0 0 731.67004 619.0958" xmlns:xlink="http://www.w3.org/1999/xlink"><path d="M0,599.58257c0,.66003,.53003,1.19,1.19006,1.19H730.48004c.65997,0,1.19-.52997,1.19-1.19,0-.65997-.53003-1.19-1.19-1.19H1.19006c-.66003,0-1.19006,.53003-1.19006,1.19Z" fill="#3f3d56"/><g><polygon points="405.33278 539.67962 405.33278 579.00786 435.06876 579.96709 433.82976 539.67962 405.33278 539.67962" fill="#ffb6b6"/><path d="M399.44815,561.56289c-.40186,0-.7953,.05152-1.17749,.16018-5.3666,1.53345-36.43089,29.26761-45.82362,37.73109-1.16063,1.04541-1.777,2.53857-1.69176,4.09638,.08431,1.55125,.85618,2.96105,2.1161,3.86781,7.12393,5.13054,21.71746,13.24649,39.42472,9.96695,8.14498-1.50909,16.36491-2.45802,23.61718-3.29453,15.52559-1.79293,27.7885-3.20835,27.7885-8.70422,0-9.32528-2.5648-33.90262-5.78345-34.93491-.29226-.08899-.63043,.13676-1.02011,.68195-4.92446,6.8935-21.83924,3.22521-22.55678,3.0669l-.18829-.04215-.10679-.16018c-.08805-.13208-8.3698-12.43527-14.59821-12.43527Z" fill="#2f2e41"/><polygon points="349.69771 539.67962 349.69771 579.00786 379.43369 579.96709 378.19469 539.67962 349.69771 539.67962" fill="#ffb6b6"/><polygon points="337.70739 258.14698 321.88017 270.13729 319.00249 405.38807 345.8608 553.10878 380.87253 554.54762 381.83176 413.54149 426.91535 285.00529 417.80271 254.78969 337.70739 258.14698" fill="#2f2e41"/><polygon points="411.56774 281.16839 426.91535 285.00529 437.94644 553.10878 398.13859 549.75149 371.75989 360.30448 411.56774 281.16839" fill="#2f2e41"/><path d="M328.46735,619.0958c-13.64554,0-24.73284-6.03169-30.654-10.0981-1.78918-1.22901-2.89641-3.17931-3.03786-5.35162-.14332-2.19198,.71099-4.29029,2.34373-5.7591,14.69657-13.2212,40.11979-35.61967,45.25221-37.08568,6.65182-1.90627,15.57898,10.8147,16.72743,12.50178,1.8585,.38032,17.0862,3.28984,21.38304-2.7278,.81965-1.14657,1.58872-1.19809,2.09362-1.03698,4.59192,1.47162,6.45042,31.03244,6.45042,35.84824,0,6.35112-12.01186,7.7375-28.63719,9.65689-7.23728,.83558-15.44034,1.78262-23.55348,3.28422-2.8758,.53301-5.67198,.76813-8.36793,.76813Z" fill="#2f2e41"/><g><g><path id="uuid-9d24659e-d52d-4dec-9206-042059cea4bd-140" d="M216.29097,83.16132c-5.08123-11.22495-3.16923-22.97686,4.2697-26.24812,7.43893-3.27126,17.58604,3.1766,22.66752,14.40625,2.09391,4.45761,3.04547,9.35706,2.77502,14.28847l20.90398,47.83572-23.5764,9.4637-18.10455-48.16229c-3.90472-3.09639-6.96865-7.06846-8.93527-11.58372Z" fill="#ffb6b6"/><path d="M360.75804,103.47244l.00005,.00004c12.74439,12.01732,11.94615,32.52064-1.69396,43.51077l-66.79614,53.81904c-7.28999,5.8737-18.10911,3.79841-22.70828-4.35592-17.55373-28.41863-20.86276-29.97718-31.06505-59.10319l28.77083-10.06383,16.222,20.31259,35.41752-41.78158c10.70407-12.62745,29.80919-13.69467,41.85303-2.33793Z" fill="#6c63ff"/></g><polygon points="370.59532 82.96518 381.52081 104.97598 340.22692 124.91929 340.73284 89.63333 370.59532 82.96518" fill="#ffb6b6"/><circle cx="340.3749" cy="62.45882" r="37.15683" fill="#ffb6b6"/><path d="M340.12337,116.33829l38.09913-22.51312h0l.00004,.00003c27.94331,19.59661,51.21303,24.18123,51.95332,58.30319l-5.14988,81.3936,.30181,35.05417c.1267,14.71562-11.76744,26.71261-26.48361,26.71261h-54.40374c-14.39724,0-25.1238-13.28288-22.09237-27.35736l10.27091-47.68639-10.96793-92.9388,18.47231-10.96793Z" fill="#6c63ff"/><path d="M127.69193,69.64156c0-1.94656,1.57806-3.52486,3.52491-3.52486h39.70802c1.94684,0,3.525,1.57816,3.525,3.52486v.48058s97.93345,5.72877,97.93345,5.72877c.28356-1.11393,1.28474-1.9412,2.4869-1.9412h10.4135s0-7.60669,0-7.60669c0-1.69697,1.37578-3.07261,3.07261-3.07261h2.12273s0-6.71572,0-6.71572c0-1.0732,.86984-1.94318,1.94318-1.94318h5.92706c1.07334,0,1.94318,.86998,1.94318,1.94318v6.71572s1.94994,0,1.94994,0c-.13868-.27115-.21816-.56176-.21816-.86589,0-1.43469,1.67992-2.59767,3.75219-2.59767s3.75219,1.16298,3.75219,2.59767c0,.37474-.11697,.73017-.3233,1.05192,1.19426,.42139,2.05508,1.54828,2.05508,2.88658v39.45829c0,1.69697-1.37578,3.07261-3.07261,3.07261h-19.83146c-1.69683,0-3.07261-1.37564-3.07261-3.07261v-5.29765s-10.4135,0-10.4135,0c-1.34027,0-2.42855-1.02796-2.55088-2.33638l-98.03069,18.05106c-.44873,1.43089-1.78477,2.469-3.36378,2.469h-39.70802c-1.94684,0-3.52491-1.57803-3.52491-3.52459-.47015-16.09844,.57162-31.39244,0-45.48118Z" fill="#3f3d56"/><g><path id="uuid-d17d10d8-1bab-43c9-af3f-947345f0935f-141" d="M281.02678,94.41957c-4.94942-11.28369-2.89992-23.0124,4.57681-26.19631,7.47673-3.18391,17.54763,3.38235,22.49725,14.67073,2.04156,4.48182,2.93567,9.39209,2.60749,14.31999l20.34231,48.07726-23.68561,9.18693-17.53925-48.37102c-3.86819-3.1419-6.88539-7.14959-8.799-11.68757Z" fill="#ffb6b6"/><path d="M425.24607,116.42124l.00005,.00004c12.60277,12.16575,11.56447,32.65832-2.20342,43.48794l-67.42187,53.03306c-7.35828,5.78792-18.15235,3.58606-22.65571-4.62157-17.2197-28.62227-18.61455-24.7307-28.47504-53.9742l26.55394-16.74053,16.42008,22.02677,35.90442-41.36392c10.85122-12.50122,29.96754-13.34461,41.87754-1.84761Z" fill="#6c63ff"/></g><path d="M378.58476,81.15431l-6.86975,4.92164s-2.02162-21.45034-4.81082-22.40224c-2.7892-.9519-6.55246,3.9919-6.55246,3.9919l-2.74826,8.0528-9.08746-3.78793s-10.52219-5.66705-14.24113-6.93624-3.15526-12.04551-3.15526-12.04551c0,0-44.6449,6.1125-37.9373-19.62488,0,0,2.30974-18.93411,7.25354-15.17086s5.01029-5.55623,5.01029-5.55623l11.20112-2.40541s15.37033-20.70493,45.68988-3.09135c30.31955,17.61358,16.2476,74.0543,16.2476,74.0543Z" fill="#2f2e41"/></g></g></svg>